<?xml version="1.0" encoding="UTF-8"?><svg id="Cybersecurity" xmlns="http://www.w3.org/2000/svg" viewBox="0 0 423.49 98.56"><rect x="53.17" y="7.45" width="5.79" height="8.92" transform="translate(17.72 54.51) rotate(-60)" fill="#1572b6"/><polygon points="60.69 11.23 57.98 16.38 78.64 28.32 78.64 70.19 42.36 91.15 33.68 86.14 29.97 90.71 42.36 97.88 84.47 73.55 84.47 24.95 60.69 11.23" fill="#1572b6"/><polygon points="6.09 70.19 6.09 28.32 42.36 7.35 51.04 12.36 54.75 7.8 42.36 .62 .25 24.95 .25 73.55 24.04 87.28 26.75 82.13 6.09 70.19" fill="#1572b6"/><rect x="25.99" y="82.28" width="5.82" height="8.9" transform="translate(-60.66 68.4) rotate(-60)" fill="#1572b6"/><path d="M71.26,30.67c-.14,5.15-.04,10.36-.94,15.45-1.81,10.26-7.34,19.94-15.02,26.93-3.87,3.52-8.17,5.68-12.71,8.18-.47.17-.97-.21-1.39-.44-11.69-6.21-20.6-14.16-25.25-26.86-2.83-7.73-3.31-15.24-2.93-23.45l29.12-10.9,29.13,11.08ZM41.82,23.42c-7.48,2.65-14.81,5.7-22.25,8.46-.47.17-2.66.77-2.77.86-.5.38,0,2.45.01,3.08.41,15.03,4.06,25.93,15.97,35.6,1.87,1.52,6.69,4.85,8.9,5.45,1.05.29,2.99-.92,4-1.45,12.79-6.78,20.56-20.39,21.6-34.69.17-2.35.09-4.9.19-7.27l-.09-.45c-.13-.2-2.23-.76-2.69-.94-7.57-2.98-15.14-6.21-22.88-8.64Z" fill="#00c3ff"/><path d="M42.33,81.77c-.46,0-.85-.23-1.16-.4l-.21-.12c-13.35-7.09-21.21-15.46-25.49-27.13-2.53-6.89-3.41-13.96-2.96-23.64l.02-.33,29.6-11.08,29.64,11.27v.35c-.04.97-.05,1.95-.07,2.92-.07,4.15-.15,8.44-.89,12.61-1.79,10.15-7.32,20.06-15.17,27.21-3.45,3.14-7.22,5.2-11.2,7.37l-1.61.88c-.17.06-.34.09-.49.09ZM13.5,30.85c-.41,9.37.46,16.24,2.91,22.92,4.19,11.42,11.9,19.62,25.02,26.59l.25.14c.27.16.57.33.75.27l1.54-.85c3.93-2.14,7.64-4.17,11-7.23,7.69-7,13.1-16.71,14.86-26.65.72-4.09.8-8.34.87-12.45.02-.86.03-1.72.05-2.57l-28.62-10.88-28.63,10.72ZM42.02,77.41c-.17,0-.33-.02-.48-.06-2.41-.66-7.4-4.18-9.08-5.54-11.02-8.95-15.7-19.37-16.15-35.97,0-.16-.04-.41-.08-.7-.19-1.38-.29-2.38.27-2.8.12-.09.23-.13,1.59-.53.55-.16,1.1-.32,1.31-.4,3.13-1.16,6.29-2.39,9.34-3.58,4.21-1.64,8.57-3.34,12.91-4.88l.16-.06.16.05c6.02,1.89,12.03,4.3,17.84,6.63,1.69.68,3.38,1.36,5.07,2.02.15.06.47.16.84.27,1.61.49,1.92.62,2.08.86l.07.18.11.51v.06c-.05,1.01-.06,2.04-.07,3.09-.01,1.39-.03,2.84-.13,4.2-1.1,15.08-9.48,28.53-21.87,35.09l-.45.25c-1.02.57-2.38,1.31-3.44,1.31ZM17.11,33.15c-.11.32.04,1.38.1,1.85.05.34.09.63.09.81.45,16.49,4.88,26.37,15.78,35.23,1.88,1.52,6.65,4.8,8.71,5.36.71.19,2.31-.69,3.17-1.16l.46-.25c12.08-6.41,20.26-19.54,21.34-34.28.1-1.33.11-2.76.13-4.14.01-1.03.02-2.06.06-3.06l-.04-.17c-.32-.13-1.08-.37-1.51-.5-.4-.12-.76-.23-.92-.3-1.69-.67-3.38-1.34-5.07-2.02-5.74-2.3-11.68-4.68-17.61-6.56-4.27,1.52-8.57,3.19-12.72,4.81-3.06,1.19-6.22,2.43-9.36,3.59-.22.08-.79.25-1.37.42-.44.13-1.03.3-1.26.38Z" fill="#444c5c"/><polygon points="50.83 30.84 35.3 49.95 40.82 49.95 47.83 36.58 48.78 34.78 50.83 30.84" fill="#1572b6"/><polygon points="49.42 46.22 43.9 46.22 36.9 59.59 35.95 61.39 33.89 65.33 49.42 46.22" fill="#1572b6"/><g id="Layer_6"><path d="M108.61,48.45c-2.49,0-4.63-.63-6.44-1.88-1.8-1.25-3.19-2.99-4.16-5.22s-1.46-4.81-1.46-7.75c0-3.13.53-5.77,1.59-7.92s2.5-3.77,4.32-4.87c1.82-1.1,3.87-1.65,6.15-1.65,3.02,0,5.44.75,7.28,2.26,1.84,1.51,3.1,3.47,3.79,5.88l-3.78.76c-.58-1.75-1.52-3.15-2.8-4.2s-2.78-1.56-4.49-1.56c-1.48,0-2.85.42-4.11,1.27-1.25.85-2.26,2.11-3.03,3.79-.77,1.68-1.15,3.76-1.15,6.23,0,2.25.3,4.25.91,6.01.61,1.76,1.52,3.14,2.75,4.14,1.22,1.01,2.76,1.51,4.62,1.51,2.23,0,4.01-.6,5.32-1.8,1.31-1.2,1.97-2.77,1.97-4.73h3.83c0,2.03-.47,3.76-1.4,5.21-.93,1.45-2.23,2.56-3.9,3.34-1.67.78-3.61,1.17-5.82,1.17Z" fill="#e1e3e3"/><path d="M122.24,19.65h4.23l8.1,13.72h-.9l8.23-13.72h4.19l-10.21,16.65v11.61h-3.56v-11.61l-10.08-16.65Z" fill="#e1e3e3"/><path d="M151.07,47.91v-28.26h10.58c2.07,0,3.79.34,5.15,1.02,1.36.68,2.39,1.58,3.06,2.7.67,1.12,1.01,2.34,1.01,3.66,0,1.62-.45,3.03-1.34,4.22-.89,1.19-2.23,2.01-4.02,2.44,1.15.18,2.17.59,3.05,1.23s1.56,1.42,2.06,2.34c.49.92.74,1.91.74,2.96,0,.96-.16,1.9-.48,2.81-.32.92-.86,1.74-1.61,2.47-.75.74-1.75,1.32-2.99,1.76s-2.79.65-4.63.65h-10.58ZM154.58,22.67v9.63h6.93c1.76,0,3.15-.43,4.2-1.29,1.04-.86,1.56-2.08,1.56-3.66,0-1.47-.51-2.62-1.52-3.44-1.01-.82-2.41-1.24-4.2-1.24h-6.97ZM154.58,44.85h7.02c2.14,0,3.69-.45,4.62-1.35.94-.9,1.41-2.05,1.41-3.46s-.51-2.57-1.53-3.43c-1.02-.86-2.52-1.29-4.5-1.29h-7.02v9.54Z" fill="#e1e3e3"/><path d="M178.99,47.91v-28.26h17.42v3.01h-13.91v9.5h13.1v3.02h-13.1v9.67h13.91v3.06h-17.42Z" fill="#e1e3e3"/><path d="M204.32,47.91v-28.26h9.85c3.23,0,5.67.77,7.32,2.31,1.66,1.54,2.49,3.56,2.49,6.06s-.83,4.48-2.49,6.02c-1.66,1.54-4.1,2.31-7.32,2.31h-6.34v11.56h-3.51ZM207.83,33.87h6.07c2.12,0,3.72-.52,4.83-1.56s1.65-2.4,1.65-4.06-.53-3.07-1.59-4.07-2.6-1.51-4.62-1.51h-6.34v11.21ZM220.16,47.91l-8.1-12.83h3.82l8.82,12.83h-4.54Z" fill="#e1e3e3"/><path d="M240.93,48.45c-1.89,0-3.62-.34-5.2-1.02-1.58-.68-2.84-1.69-3.8-3.03s-1.46-2.98-1.48-4.95h3.42c0,1.32.32,2.4.97,3.25.64.85,1.5,1.48,2.56,1.89,1.07.41,2.23.62,3.49.62,1.37,0,2.55-.22,3.56-.65,1-.44,1.78-1.01,2.33-1.72s.82-1.5.82-2.35c0-1.2-.37-2.17-1.1-2.91-.73-.74-1.82-1.35-3.26-1.81l-4.99-1.75c-2.34-.84-4.11-1.8-5.31-2.88s-1.8-2.59-1.8-4.54c0-2.19.84-3.97,2.53-5.35,1.69-1.38,4.08-2.07,7.19-2.07,2.88,0,5.13.66,6.75,1.99s2.55,3.11,2.79,5.34h-3.46c-.22-1.31-.84-2.32-1.83-3.05-1-.73-2.41-1.09-4.24-1.09s-3.31.41-4.34,1.24c-1.04.82-1.55,1.87-1.55,3.13,0,1.03.33,1.86.98,2.46.65.61,1.68,1.15,3.07,1.63l5.85,2.02c2.03.68,3.63,1.62,4.8,2.83,1.18,1.22,1.77,2.79,1.77,4.73,0,1.5-.4,2.86-1.2,4.07-.8,1.21-1.98,2.18-3.54,2.9-1.56.72-3.47,1.08-5.74,1.08Z" fill="#e1e3e3"/><path d="M259.04,47.91v-28.26h17.42v3.01h-13.91v9.5h13.1v3.02h-13.1v9.67h13.91v3.06h-17.42Z" fill="#e1e3e3"/><path d="M294.19,48.45c-2.49,0-4.64-.63-6.44-1.88-1.8-1.25-3.19-2.99-4.16-5.22-.98-2.23-1.46-4.81-1.46-7.75,0-3.13.53-5.77,1.59-7.92,1.06-2.15,2.5-3.77,4.32-4.87s3.87-1.65,6.15-1.65c3.01,0,5.44.75,7.28,2.26,1.84,1.51,3.1,3.47,3.79,5.88l-3.78.76c-.58-1.75-1.52-3.15-2.8-4.2s-2.78-1.56-4.49-1.56c-1.49,0-2.85.42-4.11,1.27-1.25.85-2.26,2.11-3.03,3.79-.77,1.68-1.15,3.76-1.15,6.23,0,2.25.3,4.25.91,6.01.61,1.76,1.52,3.14,2.75,4.14,1.22,1.01,2.76,1.51,4.62,1.51,2.23,0,4.01-.6,5.32-1.8,1.31-1.2,1.97-2.77,1.97-4.73h3.83c0,2.03-.46,3.76-1.39,5.21-.93,1.45-2.23,2.56-3.9,3.34s-3.61,1.17-5.82,1.17Z" fill="#e1e3e3"/><path d="M311.33,19.65h3.51v18.04c0,2.65.67,4.57,2,5.75,1.33,1.18,3.08,1.77,5.24,1.77s3.88-.59,5.21-1.77c1.33-1.18,1.99-3.09,1.99-5.75v-18.04h3.51v18.04c0,2.37-.44,4.35-1.32,5.95-.88,1.6-2.12,2.8-3.72,3.6s-3.5,1.2-5.67,1.2-4.07-.4-5.68-1.2-2.86-2-3.75-3.6-1.33-3.58-1.33-5.95v-18.04Z" fill="#e1e3e3"/><path d="M341.35,47.91v-28.26h9.86c3.22,0,5.67.77,7.32,2.31s2.49,3.56,2.49,6.06-.83,4.48-2.49,6.02-4.1,2.31-7.32,2.31h-6.35v11.56h-3.51ZM344.86,33.87h6.08c2.12,0,3.72-.52,4.83-1.56s1.65-2.4,1.65-4.06-.53-3.07-1.59-4.07-2.6-1.51-4.62-1.51h-6.35v11.21ZM357.19,47.91l-8.1-12.83h3.83l8.82,12.83h-4.54Z" fill="#e1e3e3"/><path d="M368.91,47.91v-28.26h3.51v28.26h-3.51Z" fill="#e1e3e3"/><path d="M377.23,22.67v-3.01h22.01v3.01h-10.06l.79-.81v26.06h-3.51v-26.06l.79.81h-10.01Z" fill="#e1e3e3"/><path d="M399.89,19.65h4.23l8.1,13.72h-.9l8.24-13.72h4.18l-10.21,16.65v11.61h-3.55v-11.61l-10.08-16.65Z" fill="#e1e3e3"/></g><g id="Layer_7"><path d="M115.18,79.25h-6.36l3.38-20.36h6.48c1.98,0,3.6.41,4.89,1.24,1.28.83,2.18,2.01,2.68,3.55.51,1.54.58,3.37.22,5.51-.34,2.09-1.01,3.89-2,5.39-.99,1.5-2.27,2.65-3.84,3.46-1.57.81-3.39,1.21-5.45,1.21ZM111.65,77.07h3.61c1.68,0,3.14-.33,4.36-.99,1.22-.66,2.21-1.61,2.96-2.83.75-1.23,1.27-2.68,1.55-4.37.28-1.62.25-3.01-.07-4.17s-.97-2.06-1.92-2.68c-.95-.63-2.22-.94-3.81-.94h-4.03l-2.65,15.99Z" fill="#00c3ff"/><path d="M142.66,58.89l-3.38,20.36h-2.47l3.38-20.36h2.47Z" fill="#00c3ff"/><path d="M156.3,58.89l3.22,17.14h.24l8.87-17.14h2.58l-10.86,20.36h-2.55l-4.1-20.36h2.59Z" fill="#00c3ff"/><path d="M184.74,58.89l-3.38,20.36h-2.47l3.38-20.36h2.47Z" fill="#00c3ff"/><path d="M207.81,64.14c0-1.09-.36-1.92-1.08-2.49-.72-.57-1.7-.85-2.93-.85-.9,0-1.71.15-2.44.44-.72.29-1.31.69-1.77,1.2s-.74,1.09-.85,1.74c-.09.54-.03,1.01.17,1.4s.48.71.85.96c.37.25.76.46,1.19.63.42.16.81.29,1.17.39l1.99.56c.5.14,1.05.33,1.66.58s1.18.58,1.71,1c.53.42.94.96,1.22,1.62s.34,1.46.18,2.42c-.19,1.1-.64,2.09-1.36,2.98-.72.89-1.67,1.59-2.84,2.12-1.18.52-2.55.79-4.11.79-1.46,0-2.68-.24-3.67-.71-.99-.47-1.72-1.13-2.19-1.97-.47-.84-.65-1.82-.54-2.93h2.55c-.07.77.09,1.4.46,1.9.37.5.89.87,1.55,1.11.66.24,1.4.36,2.21.36.94,0,1.81-.15,2.61-.46.8-.31,1.46-.74,1.99-1.29s.85-1.2.97-1.94c.12-.68.03-1.23-.28-1.65-.3-.42-.75-.77-1.32-1.03-.58-.26-1.21-.5-1.9-.7l-2.39-.72c-1.51-.46-2.66-1.11-3.45-1.96-.79-.85-1.07-1.96-.85-3.33.2-1.14.68-2.14,1.44-2.99s1.71-1.51,2.83-1.99c1.13-.47,2.34-.71,3.64-.71s2.44.24,3.37.71,1.63,1.13,2.09,1.96c.46.83.63,1.78.51,2.86h-2.39Z" fill="#00c3ff"/><path d="M225.74,58.89l-3.38,20.36h-2.47l3.38-20.36h2.47Z" fill="#00c3ff"/><path d="M254.02,69.23c-.36,2.12-1.04,3.95-2.06,5.49-1.01,1.54-2.25,2.73-3.72,3.56-1.47.83-3.05,1.25-4.76,1.25s-3.26-.43-4.5-1.3c-1.24-.87-2.12-2.09-2.64-3.68-.53-1.59-.61-3.47-.25-5.64.36-2.12,1.04-3.95,2.06-5.49,1.01-1.54,2.26-2.73,3.73-3.56s3.07-1.25,4.79-1.25,3.24.43,4.47,1.3c1.23.86,2.11,2.09,2.64,3.68.53,1.59.61,3.47.25,5.64ZM251.67,68.91c.29-1.74.25-3.2-.13-4.38s-1-2.08-1.88-2.69c-.88-.61-1.92-.92-3.12-.92s-2.45.32-3.58.96-2.09,1.58-2.89,2.81-1.35,2.75-1.64,4.54c-.29,1.74-.25,3.2.13,4.38.38,1.19,1,2.08,1.88,2.69.88.61,1.92.92,3.12.92s2.45-.32,3.58-.96,2.09-1.58,2.89-2.81c.8-1.24,1.35-2.75,1.64-4.54Z" fill="#00c3ff"/><path d="M283.89,58.89l-3.38,20.36h-2.39l-8.43-15.99h-.2l-2.67,15.99h-2.47l3.38-20.36h2.39l8.47,16.03h.2l2.67-16.03h2.43Z" fill="#00c3ff"/></g></svg>