<svg xmlns="http://www.w3.org/2000/svg" viewBox="19.99999999999997 168.16663664948848 534.9998454620169 238.666726701023"> <g transform="rotate(0 132.15323907457795 287.5)"><svg xmlns="http://www.w3.org/2000/svg" xmlns:xlink="http://www.w3.org/1999/xlink" version="1.1" id="Layer_1" x="89.99999999999997" y="238.16663664948848" viewBox="177.3000030517578 106.4000015258789 245.40000915527344 287.1999816894531" xml:space="preserve" height="98.66672670102304" width="84.30647814915598" preserveAspectRatio="xMinYMin" enable-background="new 0 0 600 500" style="overflow: visible;"><polygon class="st0" points="353.4,139.2 370.5,106.4 241.2,265.5 287.2,265.5 345.5,154.2 405.7,189 405.7,311 300,372.1     274.7,357.5 263.9,370.8 300,391.7 422.7,320.8 422.7,179.2   " style="fill: #24d441; fill-opacity: 1;"></polygon><polygon class="st0" points="312.8,234.5 254.5,345.8 194.3,311 194.3,189 300,127.9 325.3,142.5 336.1,129.2 300,108.3     177.3,179.2 177.3,320.8 246.6,360.8 229.5,393.6 358.8,234.5   " style="fill: #24d441; fill-opacity: 1;"></polygon></svg></g> <g transform="rotate(0 256.0349998474121 307.33200637364973)"><svg xmlns="http://www.w3.org/2000/svg" y="296.97200576329817" viewBox="2.430000066757202 6.389999866485596 112.06999969482422 20.720001220703125" x="200" height="20.720001220703125" width="112.06999969482422" style="overflow: visible;"><g fill="#24d441" fill-opacity="1" style=""><path d="M14.30 26.76L2.43 26.76L2.43 6.66L4.99 6.66L4.99 24.50L14.30 24.50L14.30 26.76ZM34.24 26.76L31.52 26.76L38.81 6.66L41.78 6.66L49.17 26.76L46.48 26.76L42.21 14.84Q41.82 13.73 41.30 12.08Q40.78 10.43 40.04 7.86L40.04 7.86L40.53 7.86Q39.80 10.45 39.27 12.13Q38.73 13.81 38.38 14.84L38.38 14.84L34.24 26.76ZM45.50 21.15L35.19 21.15L35.19 18.91L45.50 18.91L45.50 21.15ZM74.85 26.76L67.50 26.76L67.50 6.66L74.62 6.66Q76.72 6.66 78.09 7.39Q79.46 8.11 80.13 9.31Q80.80 10.52 80.80 11.99L80.80 11.99Q80.80 13.29 80.34 14.13Q79.88 14.97 79.13 15.47Q78.38 15.97 77.51 16.21L77.51 16.21L77.51 16.40Q78.45 16.46 79.39 17.05Q80.33 17.64 80.95 18.74Q81.58 19.83 81.58 21.41L81.58 21.41Q81.58 22.92 80.89 24.13Q80.19 25.35 78.71 26.05Q77.22 26.76 74.85 26.76L74.85 26.76ZM70.06 17.64L70.06 24.50L74.78 24.50Q77.13 24.50 78.12 23.59Q79.11 22.69 79.11 21.38L79.11 21.38Q79.11 20.37 78.60 19.52Q78.09 18.67 77.15 18.16Q76.21 17.64 74.92 17.64L74.92 17.64L70.06 17.64ZM70.06 8.93L70.06 15.49L74.48 15.49Q75.56 15.49 76.44 15.06Q77.32 14.64 77.83 13.86Q78.34 13.08 78.34 12.05L78.34 12.05Q78.34 10.74 77.43 9.83Q76.52 8.93 74.57 8.93L74.57 8.93L70.06 8.93ZM107.20 27.11L107.20 27.11Q105.03 27.11 103.43 26.41Q101.83 25.71 100.93 24.45Q100.02 23.19 99.90 21.50L99.90 21.50L102.53 21.50Q102.64 22.63 103.30 23.37Q103.96 24.11 105.00 24.46Q106.03 24.82 107.20 24.82L107.20 24.82Q108.56 24.82 109.65 24.37Q110.74 23.93 111.37 23.12Q112.00 22.31 112.00 21.25L112.00 21.25Q112.00 20.27 111.46 19.67Q110.91 19.06 110.01 18.67Q109.10 18.28 108.02 17.98L108.02 17.98L105.60 17.29Q103.17 16.61 101.82 15.32Q100.47 14.04 100.47 12.05L100.47 12.05Q100.47 10.35 101.39 9.07Q102.30 7.80 103.87 7.10Q105.43 6.39 107.38 6.39L107.38 6.39Q109.36 6.39 110.88 7.10Q112.41 7.80 113.29 9.00Q114.18 10.21 114.23 11.74L114.23 11.74L111.72 11.74Q111.54 10.27 110.32 9.46Q109.09 8.66 107.30 8.66L107.30 8.66Q106.00 8.66 105.02 9.08Q104.04 9.51 103.51 10.25Q102.97 10.98 102.97 11.92L102.97 11.92Q102.97 12.98 103.62 13.62Q104.27 14.26 105.17 14.62Q106.07 14.97 106.80 15.18L106.80 15.18L108.81 15.73Q109.62 15.94 110.59 16.32Q111.57 16.70 112.46 17.33Q113.35 17.95 113.93 18.92Q114.50 19.88 114.50 21.29L114.50 21.29Q114.50 22.93 113.64 24.25Q112.79 25.58 111.15 26.34Q109.52 27.11 107.20 27.11Z" transform="translate(0, 0)"></path></g></svg></g> <g transform="rotate(0 339.5198344756887 272.1079827738961)"><svg xmlns="http://www.w3.org/2000/svg" y="257.3079816294869" viewBox="0.36000001430511475 12.640000343322754 290.96002197265625 29.60000228881836" x="194.03982348936057" height="29.60000228881836" width="290.96002197265625" style="overflow: visible;"><g fill="#e1e3e3" fill-opacity="1" style=""><path d="M0.36 40.28L0.36 40.28L0.36 36.60Q1.98 37.65 3.59 38.21Q5.21 38.78 6.73 38.78L6.73 38.78Q9.12 38.78 10.13 37.37Q11.14 35.96 11.14 33.42L11.14 33.42L11.14 13.14L14.69 13.14L14.69 33.42Q14.69 36.53 13.74 38.48Q12.80 40.42 11.06 41.33Q9.32 42.24 6.96 42.24L6.96 42.24Q5.11 42.24 3.49 41.68Q1.86 41.12 0.36 40.28ZM25.48 31.37L25.48 13.14L29.03 13.14L29.03 31.37Q29.03 35.40 31.05 37.18Q33.08 38.96 36.35 38.96L36.35 38.96Q39.60 38.96 41.61 37.18Q43.62 35.40 43.62 31.37L43.62 31.37L43.62 13.14L47.17 13.14L47.17 31.37Q47.17 34.96 45.84 37.38Q44.51 39.81 42.08 41.02Q39.65 42.24 36.35 42.24L36.35 42.24Q33.05 42.24 30.61 41.02Q28.17 39.81 26.82 37.38Q25.48 34.96 25.48 31.37L25.48 31.37ZM68.13 42.24L68.13 42.24Q65.27 42.24 62.88 41.20Q60.49 40.17 59.04 38.15Q57.58 36.12 57.54 33.14L57.54 33.14L60.99 33.14Q60.99 35.14 61.97 36.43Q62.95 37.71 64.56 38.34Q66.18 38.96 68.08 38.96L68.08 38.96Q70.15 38.96 71.68 38.30Q73.20 37.65 74.03 36.57Q74.86 35.49 74.86 34.19L74.86 34.19Q74.86 32.37 73.75 31.25Q72.63 30.12 70.45 29.42L70.45 29.42L65.40 27.64Q61.86 26.37 60.04 24.73Q58.22 23.10 58.22 20.14L58.22 20.14Q58.22 16.82 60.78 14.73Q63.33 12.64 68.04 12.64L68.04 12.64Q72.40 12.64 74.86 14.65Q77.31 16.66 77.68 20.05L77.68 20.05L74.18 20.05Q73.84 18.07 72.32 16.97Q70.81 15.87 68.04 15.87L68.04 15.87Q65.22 15.87 63.65 17.12Q62.08 18.37 62.08 20.28L62.08 20.28Q62.08 21.85 63.07 22.77Q64.06 23.69 66.18 24.42L66.18 24.42L72.09 26.46Q75.15 27.48 76.94 29.33Q78.72 31.17 78.72 34.10L78.72 34.10Q78.72 36.37 77.51 38.21Q76.29 40.06 73.93 41.15Q71.56 42.24 68.13 42.24ZM95.46 16.19L85.34 16.19L85.34 13.14L107.57 13.14L107.57 16.19L97.41 16.19L98.21 15.37L98.21 41.69L94.66 41.69L94.66 15.37L95.46 16.19ZM139.49 42.24L139.49 42.24Q135.72 42.24 132.99 40.34Q130.26 38.44 128.78 35.07Q127.30 31.69 127.30 27.23L127.30 27.23Q127.30 22.48 128.91 19.23Q130.51 15.98 133.27 14.31Q136.03 12.64 139.49 12.64L139.49 12.64Q144.06 12.64 146.84 14.92Q149.63 17.21 150.67 20.87L150.67 20.87L146.85 21.64Q145.97 18.98 144.02 17.40Q142.08 15.82 139.49 15.82L139.49 15.82Q137.24 15.82 135.34 17.11Q133.44 18.39 132.28 20.94Q131.12 23.48 131.12 27.23L131.12 27.23Q131.12 30.64 132.04 33.30Q132.96 35.96 134.82 37.49Q136.67 39.01 139.49 39.01L139.49 39.01Q142.88 39.01 144.87 37.19Q146.85 35.37 146.85 32.42L146.85 32.42L150.72 32.42Q150.72 35.49 149.31 37.68Q147.90 39.87 145.37 41.06Q142.83 42.24 139.49 42.24ZM164.18 41.69L160.63 41.69L160.63 13.14L170.59 13.14Q175.47 13.14 177.99 15.47Q180.50 17.80 180.50 21.60L180.50 21.60Q180.50 25.35 177.99 27.68Q175.47 30.01 170.59 30.01L170.59 30.01L164.18 30.01L164.18 41.69ZM181.23 41.69L176.63 41.69L168.45 28.73L172.31 28.73L181.23 41.69ZM164.18 16.19L164.18 27.51L170.31 27.51Q173.52 27.51 175.19 25.93Q176.86 24.35 176.86 21.82L176.86 21.82Q176.86 19.23 175.26 17.71Q173.66 16.19 170.59 16.19L170.59 16.19L164.18 16.19ZM209.21 41.69L191.62 41.69L191.62 13.14L209.21 13.14L209.21 16.19L195.16 16.19L195.16 25.78L208.39 25.78L208.39 28.83L195.16 28.83L195.16 38.60L209.21 38.60L209.21 41.69ZM220.71 41.69L216.99 41.69L226.81 13.14L231.12 13.14L240.72 41.69L236.99 41.69L234.58 34.37L223.21 34.37L220.71 41.69ZM228.90 17.46L224.12 31.60L233.67 31.60L228.90 17.46ZM253.63 16.19L243.51 16.19L243.51 13.14L265.75 13.14L265.75 16.19L255.59 16.19L256.38 15.37L256.38 41.69L252.83 41.69L252.83 15.37L253.63 16.19ZM291.32 41.69L273.73 41.69L273.73 13.14L291.32 13.14L291.32 16.19L277.27 16.19L277.27 25.78L290.50 25.78L290.50 28.83L277.27 28.83L277.27 38.60L291.32 38.60L291.32 41.69Z" transform="translate(0, 0)"></path></g></svg></g></svg>