<?xml version="1.0" encoding="UTF-8"?><svg id="Original_Logo" xmlns="http://www.w3.org/2000/svg" viewBox="0 0 395 98.67"><polygon points="60.5 11.27 66.37 0 21.95 54.66 37.76 54.66 57.78 16.42 78.47 28.38 78.47 70.29 42.15 91.28 33.46 86.26 29.75 90.83 42.15 98.01 84.31 73.66 84.31 25.01 60.5 11.27" fill="#24d441"/><polygon points="46.55 44.01 26.52 82.25 5.84 70.29 5.84 28.38 42.15 7.39 50.84 12.4 54.56 7.83 42.15 .65 0 25.01 0 73.66 23.81 87.4 17.93 98.67 62.35 44.01 46.55 44.01" fill="#24d441"/><path d="M121.87,79.18h-11.87v-20.1h2.56v17.84h9.31v2.26ZM141.81,79.18h-2.72l7.29-20.1h2.97l7.39,20.1h-2.69l-4.27-11.92c-.26-.74-.56-1.66-.91-2.76-.35-1.1-.77-2.51-1.26-4.22h.49c-.49,1.73-.91,3.15-1.26,4.27-.36,1.12-.66,2.02-.89,2.71h0l-4.14,11.92ZM153.07,73.57h-10.31v-2.24h10.31v2.24ZM182.42,79.18h-7.35v-20.1h7.12c1.4,0,2.56.24,3.47.73.91.48,1.59,1.12,2.04,1.92.45.81.67,1.7.67,2.68h0c0,.87-.15,1.58-.46,2.14-.31.56-.71,1.01-1.21,1.34-.5.33-1.04.58-1.62.74h0v.19c.63.04,1.25.26,1.88.65s1.15.96,1.56,1.69c.42.73.63,1.62.63,2.67h0c0,1.01-.23,1.91-.69,2.72-.47.81-1.19,1.45-2.18,1.92-.99.47-2.28.71-3.86.71h0ZM177.63,70.06v6.86h4.72c1.57,0,2.68-.3,3.34-.91.66-.6.99-1.34.99-2.21h0c0-.67-.17-1.29-.51-1.86-.34-.57-.82-1.02-1.45-1.36-.63-.35-1.37-.52-2.23-.52h-4.86ZM177.63,61.35v6.56h4.42c.72,0,1.37-.14,1.96-.43.59-.28,1.05-.68,1.39-1.2.34-.52.51-1.12.51-1.81h0c0-.87-.3-1.61-.91-2.22-.61-.6-1.56-.9-2.86-.9h-4.51ZM214.77,79.53h0c-1.45,0-2.7-.23-3.77-.7-1.07-.47-1.9-1.12-2.5-1.96-.61-.84-.95-1.82-1.03-2.95h2.63c.07.75.33,1.38.77,1.87.44.49,1.01.86,1.7,1.09.69.24,1.42.36,2.2.36h0c.91,0,1.72-.15,2.45-.45.73-.29,1.3-.71,1.72-1.25s.63-1.16.63-1.87h0c0-.65-.18-1.18-.54-1.58-.37-.41-.85-.74-1.45-1-.61-.26-1.27-.49-1.99-.69h0l-2.42-.69c-1.62-.45-2.88-1.11-3.78-1.97-.9-.85-1.35-1.94-1.35-3.27h0c0-1.13.31-2.13.92-2.98.61-.85,1.43-1.5,2.48-1.97,1.04-.47,2.21-.71,3.51-.71h0c1.32,0,2.49.24,3.5.71,1.02.47,1.82,1.1,2.41,1.9.59.81.91,1.72.94,2.74h-2.51c-.12-.98-.59-1.74-1.4-2.28-.82-.53-1.83-.8-3.02-.8h0c-.87,0-1.63.14-2.28.42-.65.29-1.16.68-1.51,1.17-.36.49-.54,1.04-.54,1.67h0c0,.71.22,1.27.65,1.7.43.43.95.76,1.55,1,.6.23,1.14.42,1.63.56h0l2.01.55c.54.14,1.13.34,1.78.59.65.25,1.28.59,1.87,1.01.59.41,1.08.94,1.47,1.59.38.64.57,1.43.57,2.37h0c0,1.09-.29,2.08-.86,2.96-.57.89-1.4,1.58-2.49,2.09-1.09.51-2.4.77-3.95.77Z" fill="#24d441"/><path d="M104.04,46.78h0v-3.68c1.08.7,2.16,1.24,3.23,1.61,1.08.38,2.13.57,3.14.57h0c1.59,0,2.73-.47,3.4-1.41.67-.94,1.01-2.26,1.01-3.95h0v-20.28h3.55v20.28c0,2.07-.32,3.76-.95,5.06-.63,1.29-1.52,2.24-2.68,2.85-1.16.61-2.53.91-4.1.91h0c-1.23,0-2.39-.19-3.47-.56-1.09-.37-2.13-.84-3.13-1.4ZM129.16,37.87v-18.23h3.55v18.23c0,2.69.67,4.62,2.02,5.81,1.35,1.19,3.12,1.78,5.3,1.78h0c2.17,0,3.92-.59,5.26-1.78s2.01-3.12,2.01-5.81h0v-18.23h3.55v18.23c0,2.39-.44,4.4-1.33,6.01-.89,1.62-2.14,2.83-3.76,3.64-1.62.81-3.53,1.22-5.73,1.22h0c-2.2,0-4.11-.41-5.74-1.22-1.63-.81-2.89-2.02-3.79-3.64-.89-1.61-1.34-3.62-1.34-6.01h0ZM171.81,48.74h0c-1.91,0-3.66-.35-5.25-1.04-1.59-.69-2.87-1.7-3.84-3.05-.97-1.35-1.47-3.02-1.5-5.01h3.45c0,1.33.33,2.43.98,3.29.65.85,1.52,1.49,2.59,1.91,1.08.41,2.25.62,3.52.62h0c1.38,0,2.58-.22,3.6-.66,1.01-.43,1.8-1.01,2.35-1.73.55-.72.83-1.51.83-2.38h0c0-1.21-.37-2.19-1.11-2.94-.75-.75-1.85-1.36-3.3-1.83h0l-5.05-1.78c-2.36-.85-4.15-1.82-5.36-2.91-1.21-1.09-1.82-2.62-1.82-4.59h0c0-2.21.85-4.02,2.56-5.41,1.7-1.39,4.12-2.09,7.26-2.09h0c2.91,0,5.18.67,6.82,2.01,1.63,1.34,2.57,3.14,2.82,5.4h-3.5c-.23-1.32-.85-2.35-1.86-3.08-1.01-.73-2.43-1.1-4.28-1.1h0c-1.88,0-3.34.42-4.39,1.25-1.05.83-1.57,1.89-1.57,3.16h0c0,1.05.33,1.88.99,2.49.66.61,1.7,1.16,3.11,1.65h0l5.91,2.04c2.04.68,3.66,1.64,4.85,2.87,1.19,1.23,1.78,2.82,1.78,4.77h0c0,1.51-.4,2.88-1.21,4.11-.81,1.23-2.01,2.21-3.58,2.94-1.58.73-3.51,1.09-5.8,1.09ZM199.14,22.69h-10.12v-3.05h22.23v3.05h-10.16l.8-.82v26.32h-3.55v-26.32l.8.82ZM243.17,48.74h0c-2.51,0-4.68-.63-6.5-1.9-1.82-1.27-3.22-3.02-4.21-5.27-.99-2.25-1.48-4.87-1.48-7.84h0c0-3.17.54-5.83,1.61-8,1.07-2.17,2.52-3.81,4.36-4.92,1.84-1.11,3.91-1.67,6.22-1.67h0c3.05,0,5.5.76,7.35,2.28,1.86,1.53,3.14,3.51,3.83,5.95h0l-3.82.77c-.59-1.77-1.53-3.19-2.83-4.24-1.29-1.05-2.8-1.58-4.53-1.58h0c-1.5,0-2.88.43-4.15,1.29-1.27.85-2.29,2.13-3.06,3.83-.77,1.69-1.16,3.79-1.16,6.29h0c0,2.27.31,4.3.92,6.07.61,1.77,1.54,3.17,2.78,4.19,1.23,1.01,2.79,1.52,4.67,1.52h0c2.26,0,4.05-.61,5.38-1.82,1.32-1.21,1.98-2.8,1.98-4.77h3.87c0,2.05-.47,3.8-1.41,5.26s-2.25,2.59-3.94,3.38c-1.69.79-3.65,1.18-5.88,1.18ZM267.86,48.19h-3.55v-28.55h9.96c3.25,0,5.72.78,7.4,2.33,1.67,1.55,2.51,3.6,2.51,6.13h0c0,2.5-.84,4.53-2.51,6.08-1.68,1.55-4.15,2.33-7.4,2.33h-6.41v11.68ZM284.91,48.19h-4.6l-8.18-12.96h3.86l8.92,12.96ZM267.86,22.69v11.32h6.13c2.14,0,3.77-.53,4.88-1.58s1.67-2.42,1.67-4.11h0c0-1.73-.53-3.1-1.6-4.11-1.07-1.01-2.62-1.52-4.67-1.52h-6.41ZM312.89,48.19h-17.59v-28.55h17.59v3.05h-14.05v9.59h13.23v3.05h-13.23v9.77h14.05v3.09ZM324.39,48.19h-3.72l9.82-28.55h4.31l9.6,28.55h-3.73l-2.41-7.32h-11.37l-2.5,7.32ZM332.58,23.96l-4.78,14.14h9.55l-4.77-14.14ZM357.31,22.69h-10.12v-3.05h22.24v3.05h-10.16l.79-.82v26.32h-3.55v-26.32l.8.82ZM395,48.19h-17.59v-28.55h17.59v3.05h-14.05v9.59h13.23v3.05h-13.23v9.77h14.05v3.09Z" fill="#e1e3e3"/></svg>