<svg width="960" height="720" xmlns="http://www.w3.org/2000/svg" xmlns:xlink="http://www.w3.org/1999/xlink" overflow="hidden"><g><rect x="0" y="0" width="960" height="720" fill="#1A1A1A"/><path d="M453 267.915 436.184 282.937 413.813 277.417 408.004 282.599 430.375 288.12 413.568 303.141 391.197 297.621 273.366 402.648C273.493 403.324 273.559 404.021 273.559 404.734 273.559 410.956 268.509 416 262.28 416 256.05 416 251 410.956 251 404.734 251 398.512 256.05 393.468 262.28 393.468 263.587 393.468 264.843 393.69 266.011 394.099L383.545 289.34 380.5 266.226 397.316 251.204 400.362 274.318 406.171 269.127 403.116 246.022 419.932 231 423.852 260.724Z" fill="#E8E8E8" fill-rule="evenodd"/><path d="M531 438.429C527.945 463.1 521.555 487.177 512.026 510 511.821 509.868 511.606 509.736 511.391 509.613 509.961 508.784 508.495 508.067 507.009 507.474 516.211 485.329 522.396 461.997 525.385 438.08 526.983 438.315 528.627 438.438 530.29 438.438 530.524 438.438 530.766 438.438 531 438.429ZM531 370.571C530.766 370.562 530.524 370.562 530.29 370.562 528.627 370.562 526.992 370.685 525.395 370.92 522.396 347.022 516.202 323.671 507 301.526 508.495 300.932 509.961 300.216 511.391 299.386 511.606 299.264 511.821 299.132 512.026 299 521.555 321.823 527.936 345.91 531 370.571Z" fill="#E8E8E8" fill-rule="evenodd"/><path d="M453.5 268.416 436.684 283.437 414.313 277.917 408.504 283.099 430.875 288.62 414.068 303.641 391.697 298.121 273.866 403.148C273.993 403.824 274.059 404.521 274.059 405.234 274.059 411.456 269.009 416.5 262.78 416.5 256.55 416.5 251.5 411.456 251.5 405.234 251.5 399.012 256.55 393.968 262.78 393.968 264.087 393.968 265.343 394.19 266.511 394.599L384.046 289.84 381 266.726 397.816 251.704 400.862 274.818 406.671 269.627 403.616 246.522 420.432 231.5 424.352 261.224Z" stroke="#2C2C2C" stroke-width="1.40955" stroke-linejoin="round" stroke-miterlimit="10" fill="none" fill-rule="evenodd"/><path d="M531.5 438.929C528.445 463.6 522.055 487.677 512.526 510.5 512.321 510.368 512.106 510.236 511.891 510.114 510.461 509.284 508.995 508.567 507.509 507.974 516.711 485.829 522.896 462.497 525.885 438.58 527.483 438.816 529.127 438.938 530.79 438.938 531.024 438.938 531.266 438.938 531.5 438.929ZM531.5 371.071C531.266 371.062 531.024 371.062 530.79 371.062 529.127 371.062 527.492 371.185 525.895 371.42 522.896 347.522 516.702 324.171 507.5 302.027 508.995 301.433 510.461 300.716 511.891 299.886 512.106 299.764 512.321 299.632 512.526 299.5 522.055 322.323 528.436 346.41 531.5 371.071Z" stroke="#2C2C2C" stroke-width="1.40955" stroke-linejoin="round" stroke-miterlimit="10" fill="none" fill-rule="evenodd"/><path d="M307 405C307 429.853 286.853 450 262 450 237.147 450 217 429.853 217 405 217 380.147 237.147 360 262 360 271.244 360 279.841 362.784 286.984 367.566L269.022 383.625C266.809 382.894 264.456 382.5 262 382.5 249.578 382.5 239.5 392.578 239.5 405 239.5 417.422 249.578 427.5 262 427.5 274.422 427.5 284.5 417.422 284.5 405 284.5 403.425 284.341 401.878 284.022 400.397L301.984 384.328C305.191 390.516 307 397.547 307 405Z" fill="#FB6762" fill-rule="evenodd"/><path d="M519.078 315.368C518.872 315.499 518.656 315.63 518.441 315.752 517.006 316.577 515.534 317.289 514.033 317.88 498.71 324 480.817 318.105 472.321 303.409 463 287.27 468.533 266.632 484.681 257.316 500.829 248 521.479 253.53 530.801 269.669 540 285.583 534.73 305.883 519.078 315.368Z" fill="#FB6762" fill-rule="evenodd"/><path d="M307.5 405.5C307.5 430.353 287.353 450.5 262.5 450.5 237.647 450.5 217.5 430.353 217.5 405.5 217.5 380.647 237.647 360.5 262.5 360.5 271.744 360.5 280.341 363.284 287.484 368.066L269.522 384.125C267.309 383.394 264.956 383 262.5 383 250.078 383 240 393.078 240 405.5 240 417.922 250.078 428 262.5 428 274.922 428 285 417.922 285 405.5 285 403.925 284.841 402.378 284.522 400.897L302.484 384.828C305.691 391.016 307.5 398.047 307.5 405.5Z" stroke="#2C2C2C" stroke-width="1.40955" stroke-linejoin="round" stroke-miterlimit="10" fill="none" fill-rule="evenodd"/><path d="M519.578 315.868C519.372 315.999 519.157 316.13 518.941 316.252 517.506 317.077 516.034 317.789 514.533 318.38 499.21 324.5 481.318 318.605 472.821 303.909 463.5 287.77 469.033 267.132 485.181 257.816 501.33 248.5 521.979 254.03 531.301 270.169 540.5 286.083 535.23 306.383 519.578 315.868Z" stroke="#2C2C2C" stroke-width="1.40955" stroke-linejoin="round" stroke-miterlimit="10" fill="none" fill-rule="evenodd"/><path d="M341 405C341 448.629 305.629 484 262 484 218.371 484 183 448.629 183 405 183 361.371 218.371 326 262 326 281.327 326 299.027 332.931 312.757 344.462L295.688 359.725C286.283 352.719 274.631 348.571 262 348.571 230.833 348.571 205.571 373.833 205.571 405 205.571 436.167 230.833 461.429 262 461.429 293.167 461.429 318.429 436.167 318.429 405 318.429 394.617 315.626 384.893 310.735 376.541L327.805 361.277C336.147 373.795 341 388.833 341 405Z" fill="#F79438" fill-rule="evenodd"/><path d="M564 404.5C564 422.767 549.163 437.618 530.718 437.991 530.482 438 530.236 438 530 438 528.319 438 526.657 437.879 525.042 437.646 508.618 435.283 496 421.343 496 404.5 496 387.657 508.618 373.717 525.051 371.354 526.666 371.121 528.319 371 530 371 530.236 371 530.482 371 530.718 371.009 549.163 371.381 564 386.233 564 404.5Z" fill="#F79438" fill-rule="evenodd"/><path d="M341.5 405.5C341.5 449.129 306.129 484.5 262.5 484.5 218.871 484.5 183.5 449.129 183.5 405.5 183.5 361.871 218.871 326.5 262.5 326.5 281.827 326.5 299.527 333.431 313.258 344.962L296.188 360.226C286.783 353.219 275.131 349.071 262.5 349.071 231.333 349.071 206.071 374.333 206.071 405.5 206.071 436.667 231.333 461.929 262.5 461.929 293.667 461.929 318.929 436.667 318.929 405.5 318.929 395.117 316.126 385.393 311.235 377.041L328.305 361.777C336.647 374.295 341.5 389.333 341.5 405.5Z" stroke="#2C2C2C" stroke-width="1.40955" stroke-linejoin="round" stroke-miterlimit="10" fill="none" fill-rule="evenodd"/><path d="M564.5 405C564.5 423.267 549.663 438.119 531.218 438.491 530.982 438.5 530.736 438.5 530.5 438.5 528.819 438.5 527.157 438.379 525.542 438.146 509.118 435.783 496.5 421.843 496.5 405 496.5 388.157 509.118 374.217 525.551 371.854 527.166 371.621 528.819 371.5 530.5 371.5 530.736 371.5 530.982 371.5 531.218 371.509 549.663 371.882 564.5 386.733 564.5 405Z" stroke="#2C2C2C" stroke-width="1.40955" stroke-linejoin="round" stroke-miterlimit="10" fill="none" fill-rule="evenodd"/><path d="M375 405C375 467.404 324.404 518 262 518 199.596 518 149 467.404 149 405 149 342.596 199.596 292 262 292 291.399 292 318.17 303.225 338.266 321.625L321.315 336.786C305.448 322.962 284.704 314.6 262 314.6 212.073 314.6 171.6 355.073 171.6 405 171.6 454.927 212.073 495.4 262 495.4 311.927 495.4 352.4 454.927 352.4 405 352.4 385.912 346.486 368.209 336.382 353.623L353.332 338.462C366.958 357.126 375 380.121 375 405Z" fill="#FFE711" fill-rule="evenodd"/><path d="M530.801 539.046C521.479 555.398 500.829 561 484.681 551.561 468.533 542.123 463 521.213 472.321 504.862 480.817 489.973 498.71 484 514.043 490.201 515.534 490.799 517.006 491.52 518.441 492.356 518.656 492.48 518.872 492.612 519.078 492.745 534.73 502.355 540 522.922 530.801 539.046Z" fill="#FFE711" fill-rule="evenodd"/><path d="M375.5 405.5C375.5 467.904 324.904 518.5 262.5 518.5 200.096 518.5 149.5 467.904 149.5 405.5 149.5 343.096 200.096 292.5 262.5 292.5 291.899 292.5 318.67 303.725 338.766 322.125L321.816 337.286C305.949 323.462 285.204 315.1 262.5 315.1 212.573 315.1 172.1 355.573 172.1 405.5 172.1 455.427 212.573 495.9 262.5 495.9 312.427 495.9 352.9 455.427 352.9 405.5 352.9 386.412 346.986 368.709 336.882 354.123L353.832 338.962C367.458 357.626 375.5 380.621 375.5 405.5Z" stroke="#2C2C2C" stroke-width="1.40955" stroke-linejoin="round" stroke-miterlimit="10" fill="none" fill-rule="evenodd"/><path d="M531.301 539.546C521.979 555.898 501.33 561.5 485.181 552.061 469.033 542.623 463.5 521.713 472.821 505.362 481.318 490.473 499.21 484.5 514.543 490.701 516.034 491.299 517.506 492.021 518.941 492.856 519.157 492.98 519.372 493.113 519.578 493.245 535.23 502.855 540.5 523.423 531.301 539.546Z" stroke="#2C2C2C" stroke-width="1.40955" stroke-linejoin="round" stroke-miterlimit="10" fill="none" fill-rule="evenodd"/><text fill="#F4F4F4" font-family="Roboto,Roboto_MSFontService,sans-serif" font-weight="700" font-size="23" transform="translate(344.299 202)">vCISOT Engagement Levels</text><text fill="#FB6762" font-family="Roboto,Roboto_MSFontService,sans-serif" font-weight="700" font-size="17" transform="translate(552.361 270)">Embedded Executive</text><text fill="#FFE9E8" font-family="Roboto,Roboto_MSFontService,sans-serif" font-weight="400" font-size="13" transform="translate(552.361 295)">Full strategic ownership of OT</text><text fill="#FFE9E8" font-family="Roboto,Roboto_MSFontService,sans-serif" font-weight="400" font-size="13" transform="translate(552.361 311)">security</text><text fill="#F79438" font-family="Roboto,Roboto_MSFontService,sans-serif" font-weight="700" font-size="17" transform="translate(588.072 380)">Program Architecture</text><text fill="#F79438" font-family="Roboto,Roboto_MSFontService,sans-serif" font-weight="700" font-size="17" transform="translate(588.072 401)">and Oversight</text><text fill="#FFF0E2" font-family="Roboto,Roboto_MSFontService,sans-serif" font-weight="400" font-size="13" transform="translate(588.072 428)">Guiding design and rollout of</text><text fill="#FFF0E2" font-family="Roboto,Roboto_MSFontService,sans-serif" font-weight="400" font-size="13" transform="translate(588.072 444)">controls</text><text fill="#FFE711" font-family="Roboto,Roboto_MSFontService,sans-serif" font-weight="700" font-size="17" transform="translate(552.361 514)">Advisory Input</text><text fill="#FFFBD5" font-family="Roboto,Roboto_MSFontService,sans-serif" font-weight="400" font-size="13" transform="translate(552.361 540)">Shaping strategy and</text><text fill="#FFFBD5" font-family="Roboto,Roboto_MSFontService,sans-serif" font-weight="400" font-size="13" transform="translate(552.361 556)">governance</text><path d="M495.167 292.796C495.167 293.917 494.41 294.665 493.274 294.665L483.812 294.665C482.676 294.665 481.919 293.917 481.919 292.796L481.919 282.326C481.919 281.204 482.676 280.457 483.812 280.457L493.274 280.457C494.41 280.457 495.167 281.204 495.167 282.326ZM514.091 292.796C514.091 293.917 513.334 294.665 512.199 294.665L502.737 294.665C501.601 294.665 500.844 293.917 500.844 292.796L500.844 282.326C500.844 281.204 501.601 280.457 502.737 280.457L512.199 280.457C513.334 280.457 514.091 281.204 514.091 282.326ZM487.218 274.661C491.003 270.174 496.681 267.37 503.115 267.37 509.171 267.37 514.659 269.987 518.444 273.913M519.958 300.087C516.173 305.135 510.117 308.5 503.304 308.5 496.491 308.5 490.435 305.135 486.651 300.087M495.167 287.561 500.844 287.561M520.715 283.822 524.5 287.561 514.091 287.561M520.715 291.3 524.5 287.561M488.543 289.623C489.696 289.623 490.631 288.7 490.631 287.561 490.631 286.422 489.696 285.499 488.543 285.499 487.39 285.499 486.456 286.422 486.456 287.561 486.456 288.7 487.39 289.623 488.543 289.623ZM507.468 289.623C508.621 289.623 509.555 288.7 509.555 287.561 509.555 286.422 508.621 285.499 507.468 285.499 506.315 285.499 505.38 286.422 505.38 287.561 505.38 288.7 506.315 289.623 507.468 289.623Z" stroke="#2C2C2C" stroke-width="1.40955" stroke-linejoin="round" stroke-miterlimit="10" fill="none" fill-rule="evenodd"/><path d="M534.767 397.571 517.967 397.571C517.407 397.571 517.033 397.2 517.033 396.643L517.033 391.071C517.033 390.514 517.407 390.143 517.967 390.143L534.767 390.143C535.327 390.143 535.7 390.514 535.7 391.071L535.7 396.643C535.7 397.014 535.327 397.571 534.767 397.571ZM534.767 415.214 517.967 415.214C517.407 415.214 517.033 414.843 517.033 414.286L517.033 408.714C517.033 408.157 517.407 407.786 517.967 407.786L534.767 407.786C535.327 407.786 535.7 408.157 535.7 408.714L535.7 414.286C535.7 414.657 535.327 415.214 534.767 415.214ZM546.153 416.422 541.86 412.15C541.487 411.779 541.487 411.221 541.86 410.85L546.153 406.579C546.527 406.207 547.087 406.207 547.46 406.579L551.753 410.85C552.127 411.221 552.127 411.779 551.753 412.15L547.46 416.422C547.273 416.793 546.527 416.793 546.153 416.422ZM516.1 411.5 511.433 411.5C510.873 411.5 510.5 411.129 510.5 410.571L510.5 385.5M510.5 393.857 517.033 393.857M535.7 393.857 545.967 393.857C546.527 393.857 546.9 394.229 546.9 394.786L546.9 406.248M541.58 411.5 535.7 411.5M552.5 424.5 547.833 424.5C547.273 424.5 546.9 424.129 546.9 423.572L546.9 416.637" stroke="#2C2C2C" stroke-width="1.40955" stroke-linejoin="round" stroke-miterlimit="10" fill="none" fill-rule="evenodd"/><path d="M483.264 507.071C483.263 503.442 486.159 500.5 489.732 500.5 493.306 500.5 496.202 503.442 496.201 507.071 496.202 510.7 493.306 513.643 489.732 513.643 486.159 513.643 483.263 510.7 483.264 507.071M493.261 543.5 486.205 543.5 485.224 531.556 481.5 531.556 481.5 524.39C481.5 521.438 483.033 518.705 485.533 517.199 488.033 515.693 491.13 515.638 493.681 517.052M514.15 527.594C515.437 532.674 513.204 537.999 508.706 540.577 504.208 543.155 498.566 542.344 494.949 538.6 491.332 534.855 490.642 529.111 493.266 524.593 495.89 520.076 501.175 517.911 506.151 519.315M503.075 524.697C499.917 524.697 497.357 527.297 497.357 530.503 497.357 533.71 499.917 536.31 503.075 536.31 506.233 536.31 508.793 533.71 508.793 530.503M503.384 530.503 511.324 521.919M511.324 521.919 511.048 515.211 516.672 509.956 516.677 516.209M516.677 516.209 522.5 516.209 517.325 521.919 511.324 521.919" stroke="#2C2C2C" stroke-width="1.40955" stroke-linejoin="round" stroke-miterlimit="10" fill="none" fill-rule="evenodd"/></g></svg>